<svg height="512" viewBox="0 0 58 59" width="512" xmlns="http://www.w3.org/2000/svg"><g id="025---Milling" transform="translate(-1)"><path id="Shape" d="m44.29 26.5 6.13-10.5h-11.42c-.5522847 0-1-.4477153-1-1s.4477153-1 1-1h12v-3c0-.5522847-.4477153-1-1-1h-20c-.5522847 0-1 .4477153-1 1v3h5c.5522847 0 1 .4477153 1 1s-.4477153 1-1 1h-4.42l6.13 10.5c.1775523.3075445.5048889.4978565.86.5h6.86c.3551111-.0021435.6824477-.1924555.86-.5z"/><path id="Shape" d="m56 1c0-.55228475-.4477153-1-1-1h-2v3c0 .55228475-.4477153 1-1 1s-1-.44771525-1-1v-3h-2v3c0 .55228475-.4477153 1-1 1s-1-.44771525-1-1v-3h-2v3c0 .55228475-.4477153 1-1 1s-1-.44771525-1-1v-3h-2v3c0 .55228475-.4477153 1-1 1s-1-.44771525-1-1v-3h-2v3c0 .55228475-.4477153 1-1 1s-1-.44771525-1-1v-3h-2v3c0 .55228475-.4477153 1-1 1s-1-.44771525-1-1v-3h-2v3c0 .55228475-.4477153 1-1 1s-1-.44771525-1-1v-3h-2c-.5522847 0-1 .44771525-1 1v6c0 .55228475.4477153 1 1 1h30c.5522847 0 1-.44771525 1-1z"/><path id="Shape" d="m37 47 3 2 3-2v-3.8c-6 3.99-5.58 3.8-6 3.8z"/><path id="Shape" d="m43 38.2c-6 4-5.58 3.8-6 3.8v2.8c5.92-3.95 5.54-3.8 6-3.8z"/><path id="Shape" d="m43 33.2c-6 4-5.58 3.8-6 3.8v2.8c5.91-3.94 5.54-3.8 6-3.8z"/><path id="Shape" d="m43 29h-6v5.8c5.93-3.95 5.54-3.8 6-3.8z"/><path id="Shape" d="m32.29 45.71c.3921222.3921221 1.0278778.3921221 1.42 0 .3921221-.3921222.3921221-1.0278778 0-1.42l-8-8c-.2536586-.2536586-.623374-.3527235-.969878-.259878-.3465041.0928454-.6171546.3634959-.71.71-.0928455.346504.0062194.7162194.259878.969878z"/><path id="Shape" d="m47.71 45.71 8-8c.2536586-.2536586.3527235-.623374.259878-.969878-.0928454-.3465041-.3634959-.6171546-.71-.71-.346504-.0928455-.7162194.0062194-.969878.259878l-8 8c-.3921222.3921222-.3921222 1.0278778 0 1.42s1.0278778.3921222 1.42 0z"/><circle id="Oval" cx="22" cy="34" r="1"/><circle id="Oval" cx="58" cy="34" r="1"/><path id="Shape" d="m33.62 38.78c.4289082-.3434539.5003569-.9686301.16-1.4l-4-5c-.209018-.3144469-.5773256-.4843547-.9522027-.4392706-.374877.0450842-.6923976.2974724-.8209007.6525109s-.0460757.7521844.2131034 1.0267597l4 5c.3434539.4289082.9686301.5003569 1.4.16z"/><path id="Shape" d="m50.22 32.38-4 5c-.3403569.4313699-.2689082 1.0565461.16 1.4.4313699.3403569 1.0565461.2689082 1.4-.16l4-5c.3426824-.4287515.2757366-1.0535791-.15-1.4-.2078446-.1666477-.473593-.2434734-.7382977-.213436s-.5064822.1644547-.6717023.373436z"/><path id="Shape" d="m5.92 14.21c2.52836384 1.2939373 3.57650955 4.3587684 2.37 6.93-2.03081447 4.4569137-.22683526 9.7240063 4.11 12 2.5241299 1.2976 3.5709193 4.3584654 2.37 6.93-.4335435 1.0162039.0387961 2.1914564 1.055 2.625 1.0162039.4335435 2.1914565-.0387961 2.625-1.055 2.0308145-4.4569137.2268353-9.7240063-4.11-12-2.5086076-1.3117827-3.5398997-4.3659941-2.34-6.93 2.0216098-4.454849.2248908-9.7135387-4.1-12-2.54349656-1.27967492-3.6106356-4.34825315-2.41-6.93.43733358-.99989558-.00766087-2.16578102-1-2.62-.4946855-.22560951-1.05990332-.24009554-1.56549612-.04012227-.50559281.19997328-.90798119.59716922-1.11450388 1.10012227-2.01908105 4.45454541-.21727949 9.7108959 4.11 11.99z"/><path id="Shape" d="m24.86 18.26c-.2643765-.664514-.8631845-1.137507-1.5708588-1.2408073-.7076743-.1033002-1.4167023.1787863-1.86.74-.4432977.5612138-.5535177 1.3162933-.2891412 1.9808073 1.3 3.23-.1 4.47-.29 4.63-.8277993.6521738-1.0075105 1.8347914-.410815 2.7034322s1.7650447 1.1252351 2.670815.5865678c.18-.11 4.32-2.97 1.75-9.4z"/><path id="Shape" d="m8.41 41.23c.71453118.0875301 1.42148195-.2127867 1.8545508-.7878238.4330689-.5750371.5264623-1.3374328.245-2s-.89501962-1.1246461-1.6095508-1.2121762c-3.46-.39-3.9-2.23-3.9-2.45-.10769553-1.1045695-1.0904305-1.9126955-2.195-1.805s-1.91269553 1.0904305-1.805 2.195c0 .21.54 5.22 7.41 6.06z"/><path id="Shape" d="m59 46h-8.5c-.7843134.0203657-1.4842791.4974373-1.79 1.22-1.56 3.28-9.34 5.78-18.71 5.78s-17.15-2.5-18.71-5.78c-.3057209-.7225627-1.0056866-1.1996343-1.79-1.22h-8.5v13h58zm-53 10h-1c-.55228475 0-1-.4477153-1-1s.44771525-1 1-1h1c.55228475 0 1 .4477153 1 1s-.44771525 1-1 1zm11 0h-7c-.55228475 0-1-.4477153-1-1s.44771525-1 1-1h7c.5522847 0 1 .4477153 1 1s-.4477153 1-1 1z"/></g></svg>